<?xml version="1.0" encoding="UTF-8"?><svg id="b" xmlns="http://www.w3.org/2000/svg" width="236.318" height="309.138" viewBox="0 0 236.318 309.138"><defs><style>.d{fill:#3d8dcc;}.e{fill:#fff;}.f{fill:#211715;}.g{fill:#645d5c;}.h{fill:#febe69;}</style></defs><g id="c"><path class="e" d="M165.891,76.563c1.542-1.48,3.619-2.036,5.396-1.972,3.867.139,5.512,2.231,6.219,3.46,2.112,3.667,2.018,10.422.597,14.601-1.007,2.959-2.655,7.487-6.625,10.731-1.636,1.337-4.043,2.217-6.344,1.827l-.609-.103c-.731,2.412-1.634,4.775-2.186,5.922-1.561,4.23-9.951,18.713-20.698,25.075-.002,3.713-.002,10.055-.002,10.055-.95.768-20.321,16.023-21.789,17.063l-3.411-.002c-1.467-1.041-20.82-16.319-21.77-17.088,0,0,0-7.864,0-10.084-4.388-2.48-8.406-6.067-12.255-10.679-5.713-6.845-8.963-14.217-10.757-20.324-2.453.63-5.104-.282-6.862-1.722-3.966-3.249-5.61-7.778-6.613-10.739-1.416-4.18-1.502-10.936.614-14.6.709-1.228,2.356-3.319,6.223-3.453,1.777-.062,3.853.496,5.394,1.978,0,0-8.072-37.825,49.095-37.825,52.167,0,46.384,37.88,46.384,37.88Z"/><path class="e" d="M116.552,240.666c-7.871-21.971-25.887-69.982-31.544-89.64h.974c-.731-1.975.217-4.711,1.505-6.202,2.188-2.531,4.946-6.193,7.182-8.692.949.769,20.302,16.047,21.77,17.088l3.411.002c1.469-1.04,20.839-16.295,21.789-17.063,2.233,2.502,4.987,6.166,7.172,8.7,1.286,1.492,2.232,4.229,1.498,6.203h1.009c-5.679,19.651-23.75,67.643-31.646,89.605l-3.12-.002Z"/><path class="d" d="M46.961,302.856c-4.167,2.389-12.083,3.868-17.833,3.889-2.941.011-8.389-.667-11.186-1.785-9.451-3.779-16.045-16.135-15.535-29.608.42-11.098,2.133-21.125,3.85-28.038,4.091-16.474,7.12-29.904,10.675-42.103,1.546-5.305,5.674-16.505,8.368-21.294,5.038-7.928,11.931-14.098,19.883-18.366,8.643-4.639,18.241-8.289,28.581-12.264.693-.266,1.555-.586,2.497-.931,2.575-2.348,5.25-4.408,7.561-5.802,3.617,15.539,24.171,70.221,32.73,94.113l3.12.002c8.586-23.882,29.203-78.54,32.838-94.075,2.29,1.385,4.936,3.425,7.487,5.749.956.352,1.831.676,2.533.946,10.34,3.975,19.939,7.625,28.581,12.264,7.952,4.268,14.845,10.438,19.883,18.366,2.694,4.789,6.822,15.989,8.368,21.294,3.555,12.199,6.584,25.629,10.675,42.103,1.717,6.913,3.43,16.94,3.85,28.038.51,13.473-6.084,25.828-15.535,29.608-2.797,1.119-8.245,1.796-11.186,1.785-5.75-.021-13.667-1.5-17.833-3.889H46.961Z"/><path class="e" d="M116.57,240.666c-2.566-7.163-6.21-17.093-10.153-27.907,2.062-18.978,3.816-35.22,3.816-35.833-.022-2.039-.646-4.056-1.246-6.013-.365-1.167-1.165-3.536-1.836-5.752,3.148-4.241,6.992-9.322,9.323-11.941l3.411.002c2.328,2.622,6.167,7.708,9.31,11.953-.673,2.215-1.476,4.582-1.842,5.749-.602,1.957-1.228,3.972-1.253,6.012,0,.613,1.735,16.856,3.775,35.835-3.955,10.81-7.611,20.737-10.186,27.898l-3.12-.002Z"/><path class="f" d="M83.717,147.004c-7.071,2.928-14.36,5.356-21.469,8.2-7.985,3.194-16.247,6.492-23.376,11.375-3.301,2.261-6.391,4.853-9.139,7.763-2.628,2.783-5.264,5.919-7.028,9.334-3.053,5.911-5.354,12.334-7.396,18.655-2.256,6.983-3.969,14.163-5.729,21.283-2.094,8.475-4.293,16.944-6.205,25.461-1.863,8.297-2.948,16.808-3.329,25.301-.35,7.8,1.23,15.783,5.38,22.479,3.657,5.901,9.058,10.231,15.959,11.496,7.295,1.337,14.88.844,21.961-1.399,1.659-.526,3.304-1.172,4.825-2.023,2.697-1.507.279-5.655-2.423-4.145-2.887,1.614-6.27,2.367-9.503,2.923-3.259.561-6.588.791-9.886.506-2.941-.254-6.115-.672-8.755-2.035-2.583-1.333-4.792-3.3-6.564-5.597-4.22-5.469-6.195-12.561-6.26-19.401-.078-8.131,1.087-16.446,2.704-24.402,1.635-8.04,3.813-15.995,5.76-23.966,1.803-7.383,3.636-14.762,5.739-22.066,1.695-5.887,3.817-11.714,6.291-17.318,1.287-2.915,2.781-5.566,4.745-8.09,2.327-2.989,5.015-5.709,7.937-8.118,6.127-5.052,13.566-8.389,20.831-11.452,7.316-3.084,14.762-5.852,22.208-8.603,1.338-.494,2.677-.99,3.996-1.536,1.197-.496,2.05-1.592,1.676-2.952-.311-1.131-1.747-2.175-2.952-1.676h0Z"/><path class="f" d="M151.3,151.633c6.712,2.78,13.632,5.089,20.387,7.769,7.615,3.021,15.434,6.16,22.319,10.658,3.067,2.004,5.896,4.336,8.462,6.951,2.515,2.564,5.037,5.456,6.74,8.64,2.907,5.435,4.992,11.415,6.918,17.255,2.181,6.61,3.825,13.415,5.507,20.165,2.076,8.337,4.079,16.692,6.128,25.035,1.806,7.353,2.918,14.877,3.461,22.426.286,3.979.516,8.001-.143,11.956-.574,3.443-1.601,6.83-3.213,9.932-2.787,5.363-7.139,9.798-13.176,11.091-6.653,1.426-13.626.9-20.116-1.08-1.4-.427-2.75-.933-4.029-1.648-2.699-1.509-5.122,2.636-2.423,4.145,3.199,1.788,6.867,2.742,10.453,3.373,3.566.628,7.228,1.018,10.849.752,3.511-.258,7.17-.733,10.425-2.139,3.022-1.305,5.712-3.389,7.887-5.849,5.05-5.712,7.713-13.158,8.413-20.679.405-4.355.012-8.784-.399-13.126s-.999-8.674-1.777-12.967c-1.49-8.221-3.755-16.316-5.73-24.431-1.897-7.794-3.804-15.589-5.996-23.306-1.834-6.458-4.152-12.789-6.822-18.947-1.347-3.106-2.887-5.91-4.946-8.613-2.45-3.217-5.196-6.177-8.29-8.785-6.478-5.461-14.099-9.11-21.846-12.409-7.715-3.286-15.567-6.242-23.435-9.139-1.451-.534-2.904-1.068-4.333-1.66-1.198-.496-2.639.536-2.952,1.676-.379,1.38.474,2.454,1.676,2.952h0Z"/><path class="f" d="M92.972,134.435c-1.389,1.565-2.697,3.2-4.008,4.83-1.296,1.611-2.773,3.154-3.943,4.858-1.829,2.662-2.281,6.168-.624,8.98,2.817,4.78,6.069,9.375,9.587,13.662,2.098,2.556,4.37,5.095,7.157,6.92,1.173.768,2.538.133,3.284-.861,4.501-6.002,8.734-12.28,13.712-17.906,1.094-1.236.817-2.836-.486-3.769-.31-.222-.61-.458-.913-.689-.132-.101-.54-.418.026.021-.116-.09-.232-.18-.348-.27-.334-.259-.668-.519-1.001-.778-1.69-1.316-3.375-2.638-5.059-3.961-3.699-2.905-7.394-5.817-11.084-8.733-.969-.766-1.943-1.525-2.904-2.302-1.007-.814-2.409-.985-3.394,0-.842.842-1.014,2.575,0,3.394,6.162,4.978,12.43,9.835,18.676,14.707,1.186.925,2.356,1.881,3.579,2.757l-.486-3.769c-5.248,5.93-9.717,12.549-14.463,18.877l3.284-.861c-.821-.538-1.406-1.038-2.318-1.913-1.011-.971-1.959-2.008-2.872-3.07-1.867-2.172-3.581-4.469-5.224-6.814-1.351-1.928-2.656-3.889-3.896-5.89-.356-.575-.739-1.15-1.046-1.754-.04-.078-.094-.152-.126-.233.177.454.057-.163.05-.345-.024-.655.167-1.332.43-1.925.759-1.712,2.37-3.162,3.533-4.607,1.4-1.74,2.79-3.489,4.273-5.16,2.045-2.303-1.338-5.71-3.394-3.394Z"/><path class="f" d="M139.942,137.856c1.247,1.408,2.427,2.872,3.604,4.338s2.476,2.864,3.577,4.374c.411.564.696,1.181.878,1.85.072.263.13.516.153.786.016.191-.039.945,0,.8.053-.197-.142.259-.219.393-.172.3-.351.596-.53.891-2.611,4.293-5.497,8.479-8.706,12.347-1.012,1.22-2.062,2.411-3.184,3.532-.499.499-1.013.984-1.548,1.443-.63.54-.558.487-1.262.947l3.284.861c-4.739-6.334-9.2-12.957-14.442-18.893l-.486,3.769c2.766-1.976,5.398-4.167,8.074-6.263,3.745-2.934,7.485-5.874,11.221-8.819.994-.784,1.994-1.562,2.98-2.356,1.01-.814.847-2.547,0-3.394-.998-.998-2.382-.816-3.394,0-6.092,4.91-12.288,9.698-18.461,14.505-.386.301-.773.601-1.16.901-.102.079-.616.476-.321.249s-.159.122-.253.195c-.367.282-.732.569-1.109.838-1.305.933-1.577,2.533-.486,3.769,4.972,5.631,9.197,11.914,13.691,17.922.746.997,2.099,1.635,3.284.861,5.141-3.358,8.951-8.917,12.407-13.872,1.41-2.022,2.778-4.079,4.057-6.187.377-.621.792-1.252,1.033-1.942.704-2.019.247-4.268-.595-6.164-.907-2.042-2.642-3.693-4.03-5.418-1.532-1.904-3.042-3.827-4.663-5.657-2.052-2.317-5.437,1.088-3.394,3.394Z"/><path class="f" d="M104.837,165.797c.537,1.762,1.118,3.509,1.68,5.263.593,1.852,1.373,3.894,1.317,5.867-.028.981-.181,1.971-.281,2.946-.623,6.061-1.285,12.118-1.94,18.176-.53,4.905-1.063,9.81-1.595,14.715-.14,1.291,1.203,2.4,2.4,2.4,1.414,0,2.259-1.106,2.4-2.4.886-8.154,1.772-16.308,2.645-24.463.4-3.74,1.065-7.563,1.17-11.327.061-2.181-.625-4.411-1.261-6.471-.617-1.999-1.295-3.979-1.905-5.98-.898-2.947-5.533-1.69-4.629,1.276h0Z"/><path class="f" d="M132.277,212.776c-.864-8.04-1.728-16.079-2.58-24.12-.407-3.842-1.061-7.755-1.19-11.62-.062-1.85.616-3.732,1.162-5.474.603-1.921,1.253-3.826,1.842-5.752.906-2.96-3.726-4.226-4.629-1.276-1.148,3.752-2.772,7.526-3.129,11.462-.112,1.237.082,2.466.207,3.697.614,6.053,1.268,12.102,1.915,18.151.532,4.978,1.067,9.955,1.602,14.932.139,1.289,1.004,2.4,2.4,2.4,1.19,0,2.539-1.103,2.4-2.4h0Z"/><path class="f" d="M125.861,172.093c-5.046-.001-10.092.1-15.139.099-1.255,0-2.458,1.104-2.4,2.4s1.055,2.4,2.4,2.4c5.046.001,10.092-.1,15.139-.099,1.255,0,2.458-1.104,2.4-2.4s-1.055-2.4-2.4-2.4h0Z"/><path class="d" d="M119.672,240.668c8.586-23.882,29.203-78.54,32.838-94.075,5.85,3.539,14.026,11.346,16.985,17.261.134.268.268.549.195.829-.086.329-.403.524-.695.682-2.634,1.449-5.268,2.899-7.903,4.36,2.961,2.684,5.995,5.477,8.761,8.393.402.415.694.976.718,1.549.024.488-.208.939-.403,1.377-10.023,20.792-19.604,37.801-31.988,58.27"/><path class="d" d="M116.552,240.666c-8.559-23.892-29.113-78.574-32.73-94.113-5.854,3.532-14.039,11.33-17.005,17.241-.134.268-.269.548-.196.829.085.329.402.524.695.683,2.633,1.452,5.265,2.905,7.898,4.369-2.964,2.68-6.001,5.471-8.771,8.383-.403.414-.695.975-.72,1.548-.025.488.207.939.402,1.378,9.999,20.803,19.561,37.823,31.921,58.307"/><path class="f" d="M121.986,241.306c4.548-12.646,9.232-25.244,13.827-37.874,4.962-13.638,9.921-27.286,14.473-41.067,1.649-4.992,3.332-10.012,4.537-15.134l-3.526,1.434c3.389,2.074,6.429,4.696,9.229,7.503,2.689,2.696,5.555,5.757,7.07,9.307l-.328-1.211.02.419.328-1.211c.228-.428-.209.027-.458.165-.347.191-.693.381-1.04.572-.693.382-1.387.763-2.08,1.145-1.387.765-2.774,1.531-4.159,2.299-1.305.724-1.62,2.74-.486,3.769,1.959,1.777,3.911,3.563,5.807,5.409.503.49,1.002.983,1.496,1.482.391.395.836,1.032,1.299,1.335.088.058.238.376.19.131-.034-.179-.038-.094-.069.007-.204.659-.644,1.337-.947,1.96-2.296,4.723-4.653,9.418-7.074,14.078-4.647,8.946-9.539,17.763-14.603,26.479-3.077,5.297-6.216,10.559-9.386,15.801-1.603,2.65,2.546,5.065,4.145,2.423,11.388-18.831,22.286-37.979,31.782-57.843.672-1.405,1.224-2.762.703-4.327-.488-1.469-1.752-2.538-2.811-3.603-2.307-2.317-4.717-4.528-7.138-6.724l-.486,3.769c1.801-.999,3.603-1.993,5.407-2.987,1.537-.847,3.777-1.612,4.294-3.49.454-1.647-.747-3.371-1.597-4.697-.835-1.302-1.777-2.536-2.753-3.734-3.889-4.774-8.672-9.149-13.933-12.369-1.287-.787-3.174-.06-3.526,1.434-1.038,4.411-2.452,8.74-3.853,13.046-2.056,6.32-4.233,12.6-6.439,18.869-5.031,14.29-10.251,28.513-15.464,42.738-2.371,6.47-4.749,12.938-7.081,19.422-.439,1.22.495,2.628,1.676,2.952,1.332.366,2.512-.452,2.952-1.676h0Z"/><path class="f" d="M118.866,240.028c-4.534-12.652-9.203-25.255-13.784-37.889-4.947-13.643-9.89-27.297-14.426-41.084-1.643-4.994-3.32-10.016-4.52-15.139-.35-1.496-2.24-2.219-3.526-1.434-5.262,3.213-10.058,7.583-13.947,12.354-.942,1.155-1.854,2.344-2.668,3.594-.88,1.351-2.152,3.147-1.689,4.833.516,1.878,2.753,2.644,4.291,3.494,1.803.995,3.604,1.992,5.404,2.993l-.486-3.769c-2.077,1.88-4.146,3.77-6.148,5.729-1.905,1.864-4.73,4.037-3.888,7.07.341,1.227,1.044,2.401,1.598,3.542.643,1.325,1.291,2.648,1.943,3.969,1.209,2.447,2.435,4.886,3.679,7.317,4.896,9.57,10.072,18.992,15.45,28.299,3.217,5.566,6.502,11.093,9.823,16.598,1.594,2.642,5.746.232,4.145-2.423-10.725-17.781-20.953-35.84-30.076-54.501-.343-.701-.684-1.402-1.024-2.104-.27-.558-.737-1.192-.862-1.799-.039-.191-.047.122-.061.153.1-.229.354-.396.527-.576.486-.503.977-1.001,1.474-1.494,2.208-2.195,4.507-4.297,6.815-6.386,1.137-1.029.817-3.045-.486-3.769-1.385-.77-2.77-1.538-4.157-2.304-.623-.345-1.247-.689-1.871-1.033-.346-.191-.693-.382-1.039-.573-.238-.131-.938-.796-.665-.281l.328,1.211.02-.419-.328,1.211c1.519-3.548,4.389-6.606,7.081-9.299,2.804-2.804,5.847-5.421,9.238-7.492l-3.526-1.434c1.033,4.412,2.442,8.743,3.838,13.05,2.049,6.322,4.218,12.605,6.418,18.876,5.014,14.296,10.218,28.525,15.415,42.756,2.364,6.473,4.735,12.943,7.059,19.431.437,1.22,1.635,2.038,2.952,1.676,1.179-.324,2.116-1.726,1.676-2.952h0Z"/><path class="g" d="M111.814,2.714c2.029-.195,4.111-.295,6.244-.294,14.032.008,24.922,4.285,34.245,10.931,10.96,7.829,22.299,21.657,23.238,43.908.255,6.036-.414,11.018-1.999,17.43-.641-.189-1.374-.314-2.211-.348-1.777-.071-3.856.481-5.404,1.968l-7.607-1.736c-2.441-6.207-7.958-13.067-13.713-18.068-3.358-2.918-5.681-4.207-8.734-5.548,0,0-4.191-.929-9.593-1.132-6.392,2.731-15.343,8.388-20.379,11.206-1.208.676-2.63-.4-2.468-1.878.106-.973.109-2.002-.216-3.356-.336-1.402-1.404-1.998-2.236-1.558-7.094,3.748-17.207,13.444-22.936,19.877l-7.596,2.141c-1.535-1.501-3.609-2.072-5.386-2.016-.978.03-1.815.188-2.526.422-1.585-6.142-2.249-12.186-2.02-17.47.973-22.446,12.979-36.308,23.579-44.087,7.679-5.636,16.969-9.357,27.719-10.393Z"/><path class="f" d="M151.024,9.587c-16.873-10.846-38.872-12.593-57.323-4.712-15.062,6.433-27.196,19.6-32.461,35.085-3.918,11.523-3.98,23.895-.945,35.623.773,2.988,5.404,1.721,4.629-1.276-2.544-9.834-2.737-19.998-.049-29.826,2.062-7.536,5.792-14.574,10.91-20.482,4.828-5.574,10.34-10.02,16.876-13.36,8.38-4.283,17.819-6.049,27.187-5.794,10.303.281,20.09,3.318,28.754,8.887,2.606,1.675,5.016-2.478,2.423-4.145h0Z"/><path class="f" d="M175.773,75.647c1.196-4.814,2.088-9.717,2.205-14.687.114-4.821-.371-9.698-1.337-14.421-1.619-7.92-4.896-15.55-9.695-22.067-2.377-3.229-5.05-6.208-8.034-8.887-2.292-2.059-5.698,1.325-3.394,3.394,5.038,4.526,9.18,9.884,12.176,15.966,3.668,7.447,5.394,15.809,5.494,24.083.063,5.223-.789,10.288-2.045,15.343-.745,2.998,3.883,4.277,4.629,1.276h0Z"/><path class="f" d="M134.662,53.032c4.777,2.114,8.662,5.24,12.259,9.006,3.648,3.82,7.102,8.233,9.085,13.175.482,1.202,1.602,2.047,2.952,1.676,1.142-.314,2.162-1.742,1.676-2.952-2.258-5.626-5.892-10.597-10.031-14.99-3.911-4.151-8.28-7.742-13.518-10.059-1.184-.524-2.578-.345-3.284.861-.597,1.021-.33,2.757.861,3.284h0Z"/><path class="f" d="M79.742,75.815c5.674-6.352,11.955-12.583,19.01-17.397.748-.51,1.509-1.001,2.289-1.46.26-.153.824-.445.81-.497,0,0-.974-.137-.942-.163-.074.059.129.819.09.58.145.883-.008,1.73.024,2.612.05,1.384.743,2.73,1.922,3.481,2.117,1.348,4.035.227,5.933-.872,1.826-1.058,3.639-2.137,5.461-3.203,4.313-2.524,8.661-5.071,13.261-7.044,1.192-.511,1.458-2.264.861-3.284-.721-1.232-2.087-1.374-3.284-.861-4.129,1.77-8.049,4.016-11.929,6.267-1.898,1.101-3.785,2.222-5.679,3.33-.757.443-1.515.884-2.277,1.317-.084.048-.596.271-.602.34.003-.031.753-.072.79-.051.03.017.587.573.343.579-.013,0,.061-.953.063-.993.109-2.345-.422-5.284-2.739-6.407-2.128-1.031-4.112.419-5.859,1.547-3.77,2.434-7.245,5.356-10.566,8.364-3.633,3.29-7.109,6.766-10.374,10.421-2.052,2.297,1.331,5.704,3.394,3.394h0Z"/><path class="f" d="M72.11,74.811c-3.157-2.859-7.779-3.466-11.614-1.607-2.819,1.367-4.44,4.171-5.144,7.128-1.642,6.896.101,14.756,4.083,20.58,2.89,4.228,7.016,7.283,12.341,6.559,1.286-.175,1.987-1.822,1.676-2.952-.381-1.387-1.663-1.852-2.952-1.676-3.735.508-6.616-3.51-8.132-6.364-1.46-2.748-2.519-5.857-2.744-8.969-.125-1.729-.119-3.513.212-5.221.148-.764.328-1.564.623-2.284.134-.328.31-.647.494-.95.054-.089.505-.714.168-.29.76-.956,1.593-1.491,2.962-1.741,1.647-.3,3.377.041,4.636,1.182,2.285,2.069,5.69-1.315,3.394-3.394h0Z"/><path class="f" d="M167.588,78.26c1.26-1.138,2.992-1.477,4.638-1.174,1.368.252,2.214.804,2.959,1.745-.337-.425.113.202.167.29.184.303.359.622.493.951.293.719.473,1.521.62,2.285.329,1.708.332,3.492.205,5.221-.229,3.113-1.292,6.22-2.756,8.966-1.521,2.854-4.405,6.864-8.141,6.351-1.282-.176-2.577.31-2.952,1.676-.308,1.12.384,2.775,1.676,2.952,8.698,1.193,13.761-7.364,16.019-14.53,1.127-3.576,1.267-7.526.697-11.213-.481-3.113-1.769-6.104-4.421-7.941-3.811-2.64-9.241-2.008-12.598,1.025-2.297,2.076,1.106,5.462,3.394,3.394h0Z"/><path class="f" d="M163.115,100.965c-.717,3.481-2.033,6.814-3.266,9.88.29-.721.029-.069-.042.083-.092.197-.181.395-.275.591-.231.482-.473.959-.723,1.432-.598,1.133-1.238,2.244-1.906,3.337-3.47,5.679-7.702,11.052-12.889,15.261-2.801,2.274-5.964,4.079-9.458,4.883-3.009.693-1.735,5.322,1.276,4.629,7.262-1.672,13.306-6.983,18.044-12.494,3.924-4.564,7.592-9.704,10.075-15.216.165-.365.322-.735.474-1.106.039-.096.271-.656.132-.331-.157.367.048-.096.086-.179.158-.347.302-.701.447-1.053.176-.427.346-.856.51-1.288.879-2.326,1.641-4.715,2.143-7.153.261-1.268-.369-2.593-1.676-2.952-1.188-.326-2.69.401-2.952,1.676h0Z"/><path class="f" d="M68.396,102.017c1.585,7.017,4.428,13.825,8.411,19.82,4.296,6.465,9.93,12.515,16.754,16.34,3.533,1.98,7.396,3.323,11.401,3.917,1.281.19,2.58-.32,2.952-1.676.311-1.131-.386-2.761-1.676-2.952-14.157-2.1-24.767-14.389-30.113-26.987-1.332-3.138-2.35-6.414-3.101-9.738-.68-3.012-5.309-1.737-4.629,1.276h0Z"/><path class="f" d="M109.277,119.561c2.915,1.541,6.054,2.188,9.351,2.169,3.357-.02,6.743-.681,9.432-2.774,1.024-.797.837-2.558,0-3.394-1.011-1.011-2.368-.799-3.394,0,.726-.565.155-.128-.032-.009-.188.12-.382.232-.58.335-.164.086-.874.366-.221.126-.266.098-.529.203-.799.29-.728.234-1.48.399-2.236.509.351-.051-.086.006-.222.019-.219.022-.439.04-.659.054-.529.034-1.059.047-1.59.044-.475-.003-.949-.02-1.423-.052-.218-.015-.435-.033-.652-.054-.019-.002-.798-.111-.324-.036-.706-.112-1.404-.26-2.089-.465-.293-.088-.578-.193-.867-.292-.616-.211.344.179-.212-.084-.358-.169-.711-.345-1.061-.531-1.146-.606-2.61-.291-3.284.861-.634,1.085-.289,2.676.861,3.284h0Z"/><path class="f" d="M117.436,97.516c.408,1.558.799,3.14,1.032,4.734l-.086-.638c.028.219.04.434.017.653l.086-.638c-.015.102-.038.197-.072.294l.242-.573c-.03.069-.062.127-.104.189l.375-.486c-.049.059-.095.104-.155.152l.486-.375c-.12.077-.246.139-.375.198l.573-.242c-.206.086-.411.149-.632.184l.638-.086c-.199.024-.394.022-.593-.001l.638.086c-.224-.031-.443-.086-.667-.116-.319-.1-.638-.114-.957-.043-.319.014-.617.109-.892.285-.498.291-.973.862-1.103,1.434-.14.614-.11,1.304.242,1.849.312.484.834,1.022,1.434,1.103.507.069.998.198,1.514.22.789.035,1.523-.206,2.228-.529.871-.398,1.549-1.179,1.781-2.116.196-.793.112-1.488-.022-2.283-.257-1.525-.608-3.037-1-4.533-.318-1.215-1.73-2.072-2.952-1.676-1.251.405-2.017,1.651-1.676,2.952h0Z"/><path class="f" d="M92.387,84.101c-.792,2.569-.28,8.478,4.586,8.984,6.433-.035,6.779-7.179,4.616-10.54-1.771-2.752-6.984-3.898-9.202,1.556Z"/><path class="f" d="M143.898,84.131c.789,2.569.271,8.479-4.596,8.979-6.433-.042-6.771-7.187-4.604-10.546,1.774-2.749,6.988-3.89,9.2,1.567Z"/><path class="f" d="M25.349,182.721c-.627-1.041-.244-2.393.832-2.959.262-.138.526-.276.787-.41,1.002-.515,2.226-.187,2.843.755,5.372,8.196,27.947,45.493,32.91,54.256.263.464.094,1.051-.375,1.305h0c-.414.224-.928.113-1.21-.263-3.512-4.665-32.942-47.955-35.787-52.683Z"/><path class="f" d="M27.422,181.51c-.021-.041-.044.349-.052.34-.003-.004.557-.283.613-.324.364-.267.037-.067-.083-.026-.094.032-.207-.298-.002.06.294.516.649,1.005.968,1.506.888,1.394,1.765,2.796,2.639,4.199,2.447,3.928,4.866,7.873,7.279,11.823,5.413,8.861,10.788,17.746,16.102,26.668,1.128,1.893,2.252,3.788,3.368,5.688.447.761.893,1.523,1.336,2.287.186.32.371.641.556.962.087.151.164.318.263.46.489.696-.505.028.109-.885l.861-.861c-.506.345-.291.317.645-.085l1.059.617c.312.288-.05.007-.17-.144-.143-.181-.272-.375-.406-.562-.349-.487-.695-.976-1.039-1.466-.97-1.378-1.931-2.763-2.89-4.149-2.753-3.977-5.486-7.968-8.213-11.962-5.969-8.742-11.918-17.498-17.799-26.3-1.735-2.597-3.529-5.172-5.144-7.847-1.595-2.641-5.747-.231-4.145,2.423,3.884,6.432,8.309,12.581,12.516,18.802,5.95,8.798,11.923,17.582,17.959,26.321,1.683,2.437,3.342,4.9,5.104,7.281,1.101,1.488,2.907,2.453,4.702,1.403,1.873-1.095,1.972-3.224,1.027-4.955-.805-1.475-1.685-2.913-2.537-4.361-5.844-9.928-11.816-19.781-17.813-29.617-2.844-4.665-5.697-9.326-8.585-13.964-.992-1.594-1.988-3.185-3.001-4.766-.59-.92-1.145-1.899-2.063-2.533-1.949-1.346-4.334-.854-6.135.506-1.892,1.428-2.197,3.845-1.174,5.882,1.387,2.761,5.529.333,4.145-2.423Z"/><path class="e" d="M59.071,238.843c-1.585.253-4.028.597-5.646.905.871,4.759-2.568,9.443-10.69,10.757-6.258,1.012-10.909-.6-14.084-4.054-8.509-9.256-11.2-22.057-7.128-33.981.693-1.754,1.358-2.894,1.358-2.894,2.261-4.235,6.018-6.879,10.433-8.601,5.161-2.014,8.775-2.436,13.441-3.19l12.317,41.058Z"/><path class="f" d="M64.341,226.284c-1.15.42-2.483.528-3.681.736-2.457.427-4.92.821-7.383,1.214-4.633.738-9.273,1.437-13.905,2.185-1.281.207-1.993,1.8-1.676,2.952.374,1.362,1.668,1.884,2.952,1.676,4.632-.747,9.272-1.447,13.905-2.185,2.427-.387,4.854-.776,7.276-1.195,1.233-.213,2.605-.323,3.788-.755,1.217-.444,2.04-1.63,1.676-2.952-.323-1.174-1.729-2.123-2.952-1.676h0Z"/><path class="f" d="M58.136,216.406c-6.77,1.204-13.601,2.071-20.39,3.166-1.281.207-1.993,1.8-1.676,2.952.374,1.362,1.668,1.883,2.952,1.676,6.789-1.095,13.619-1.962,20.39-3.166,1.277-.227,1.997-1.786,1.676-2.952-.37-1.346-1.672-1.904-2.952-1.676h0Z"/><path class="f" d="M37.864,214.101c7.267-1.175,14.533-2.35,21.8-3.525,1.281-.207,1.993-1.8,1.676-2.952-.374-1.362-1.668-1.884-2.952-1.676-7.267,1.175-14.533,2.35-21.8,3.525-1.281.207-1.993,1.8-1.676,2.952.374,1.362,1.668,1.884,2.952,1.676h0Z"/><path class="f" d="M58.433,236.529c-1.883.297-3.772.557-5.646.905-1.365.253-1.874,1.766-1.676,2.952.236,1.412-.249,3.162-1.449,4.436-1.866,1.981-4.673,2.874-7.353,3.332-2.768.473-5.842.396-8.431-.796s-4.444-3.427-6.042-5.707c-3.682-5.253-5.75-11.48-5.778-17.905-.025-5.557,1.178-11.963,5.163-16.115,5.136-5.35,13.215-6.414,20.171-7.533,1.281-.206,1.993-1.801,1.676-2.952-.374-1.363-1.668-1.883-2.952-1.676-7.511,1.208-15.498,2.614-21.365,7.875-5.362,4.809-7.314,12.468-7.484,19.429-.185,7.598,2.137,15.262,6.537,21.462,2.044,2.88,4.402,5.714,7.65,7.266,3.546,1.694,7.419,1.957,11.269,1.411,3.778-.535,7.782-1.909,10.424-4.799,2.301-2.517,3.148-5.668,2.591-9.005l-1.676,2.952c1.874-.348,3.764-.608,5.646-.905,1.281-.202,1.992-1.803,1.676-2.952-.375-1.366-1.667-1.879-2.952-1.676h0Z"/><path class="h" d="M47.388,201.168c2.205,25.197,4.663,53.301,6.574,75.153.361,4.132,3.82,7.303,7.969,7.303,26.766,0,69,0,112.852,0,4.148,0,7.609-3.166,7.971-7.298,1.911-21.806,5.118-58.455,6.581-75.16.41-4.676-3.269-8.691-7.963-8.691-31.972,0-101.491,0-126.022,0-4.693,0-8.371,4.017-7.962,8.693Z"/><path class="f" d="M176.224,206.206c-.059.372-.154.738-.289,1.089-.134.3-.297.584-.491.849-.184.223-.388.428-.612.611-.258.187-.534.346-.824.477-.341.131-.695.223-1.056.281-.446.05-.897.052-1.342.002-.356-.057-.705-.149-1.042-.278-.301-.135-.587-.3-.853-.494-.231-.19-.442-.401-.632-.632-.196-.269-.362-.557-.498-.861-.133-.347-.227-.706-.285-1.073-.044-.397-.05-.799-.01-1.196.056-.362.151-.716.285-1.058.139-.306.308-.597.506-.869.205-.252.435-.482.687-.688.265-.193.548-.358.846-.494.35-.137.713-.234,1.084-.291.377-.039.759-.039,1.137,0,.367.057.726.153,1.073.288.302.137.589.304.857.5.248.203.474.429.677.676.198.27.367.559.506.864.135.344.232.702.289,1.067.042.409.035.821-.011,1.229Z"/><path class="f" d="M44.988,201.168c1.614,18.451,3.229,36.903,4.843,55.354.375,4.287.75,8.575,1.125,12.862.18,2.055.359,4.109.539,6.164.169,1.934.5,3.754,1.526,5.441,2.021,3.324,5.551,5.024,9.369,5.036,3.311.011,6.622,0,9.932,0,16.497,0,32.994,0,49.491,0,9.603,0,19.206,0,28.808,0,4.908,0,9.816,0,14.724,0,2.565,0,5.13,0,7.694,0,2.184,0,4.185-.093,6.2-1.013,3.468-1.583,5.53-4.98,5.914-8.685.343-3.312.582-6.639.872-9.956.651-7.431,1.301-14.862,1.952-22.292,1.201-13.714,2.401-27.428,3.602-41.143.312-3.568-.091-6.809-2.616-9.565-2.506-2.735-5.826-3.295-9.349-3.295-5.541,0-11.082,0-16.623,0-13.639,0-27.277,0-40.916,0s-27.254,0-40.881,0c-5.487,0-10.974,0-16.461,0-2.257,0-4.514,0-6.771,0-2.889,0-5.732-.015-8.248,1.66-3.131,2.084-4.976,5.662-4.727,9.433.085,1.294,1.042,2.4,2.4,2.4,1.233,0,2.486-1.1,2.4-2.4-.19-2.885,1.442-5.468,4.33-6.158,1.854-.443,4.09-.135,5.992-.135,4.889,0,9.779,0,14.668,0,12.605,0,25.21,0,37.815,0,13.505,0,27.01,0,40.515,0,5.904,0,11.807,0,17.711,0,2.529,0,5.057,0,7.586,0,2.616,0,5.251-.261,7.165,1.889,1.89,2.124,1.326,4.839,1.1,7.422-.241,2.757-.483,5.514-.724,8.271-.596,6.805-1.192,13.609-1.787,20.414-1.238,14.136-2.475,28.272-3.714,42.409-.246,2.803-1.641,5.287-4.619,5.854-1.991.379-4.243.092-6.268.092-2.393,0-4.786,0-7.179,0-9.428,0-18.855,0-28.283,0-16.85,0-33.7,0-50.55,0-6.745,0-13.489,0-20.234,0-1.408,0-2.725.032-4-.647-1.184-.631-2.12-1.667-2.609-2.918-.607-1.555-.524-3.418-.667-5.058-.171-1.961-.343-3.922-.515-5.883-1.536-17.558-3.072-35.117-4.608-52.675-.375-4.292-.751-8.583-1.126-12.875-.113-1.291-1.022-2.4-2.4-2.4-1.211,0-2.514,1.101-2.4,2.4Z"/><path class="e" d="M188.696,244.247c-2.485-1.121-5.246-1.762-7.94-2.454-4.589-1.18-9.446-2.065-14.148-1.591-1.855.187-3.867,1.561-3.977,4.297-.109,2.716,2.862,4.891,4.698,5.352l7.05,1.663s2.008.474,5.005,1.181c-8.644.693-15.224,1.207-21.17,2.37-2.372.464-3.657,1.895-4.2,2.636-1.211,1.655-1.161,4.197.276,5.929,1.145,1.38,2.459,1.788,3.992,1.784-1.629,1.222-2,1.655-2.598,2.668-.826,1.402-.846,3.51-.049,5.12.65,1.314,2.208,2.186,3.57,2.365l2.826.372-.367.238c-1.343.871-2.35,3.265-1.665,5.286,1.001,2.952,3.63,3.296,5.313,3.154,1.6-.135,4.054-.388,5.698-.479.298,4.829,4.06,8.168,8.239,9.348,3.013.851,6.227.669,9.275-.009,1.112-.247,2.222-.564,3.221-1.121,1.98-1.104,4.07-2.766,5.189-4.772,6.125-10.98,5.307-26.995-1.512-37.592-1.094-1.536-1.468-1.899-2.013-2.483-1.354-1.448-2.965-2.474-4.712-3.262Z"/><path class="f" d="M156.858,263.501c-1.417,1.093-2.711,2.189-3.481,3.845-.885,1.902-.959,4.177-.215,6.141,1.062,2.802,3.893,4.607,6.877,4.474,4.912-.218,9.82-.88,14.716-1.309,2.72-.238,5.451-.495,8.183-.549,3.085-.061,3.095-4.861,0-4.8-4.452.088-8.908.604-13.338,1.022-2.283.215-4.565.439-6.85.636-.769.066-1.538.132-2.308.178-.246.015-.492.026-.738.036-.11.004-.621-.033-.316.01.309.044-.434-.133-.567-.19-.288-.126-.568-.303-.785-.532-.429-.452-.554-1.099-.58-1.705-.065-1.489.789-2.313,1.825-3.112,1.025-.79,1.575-2.063.861-3.284-.59-1.008-2.251-1.658-3.284-.861h0Z"/><path class="f" d="M179.813,250.261c-5.68.455-11.368.874-17.017,1.641-2.418.329-5.055.529-7.292,1.557-2.012.925-3.74,2.696-4.424,4.821-.855,2.656.012,5.689,2.021,7.588,1.938,1.831,4.468,2.122,7.006,1.796.804-.103,1.604-.235,2.406-.351,1.052-.151.908-.129,1.903-.257,1.98-.256,3.963-.494,5.947-.72,4.403-.502,8.83-1.029,13.26-1.197,3.079-.117,3.094-4.918,0-4.8-6.925.263-13.873,1.197-20.736,2.119-2.307.31-6.955,1.795-7.338-1.753-.072-.669.165-1.249.537-1.792-.338.492.281-.285.398-.395.299-.279.566-.478.97-.682,1.698-.856,4.031-.945,5.897-1.206,5.457-.763,10.972-1.129,16.462-1.569,1.292-.104,2.4-1.029,2.4-2.4,0-1.218-1.101-2.504-2.4-2.4h0Z"/><path class="f" d="M160.452,274.104c-3.827,2.775-4.135,8.724-.217,11.592,3.085,2.258,7.281,1.049,10.774.841l-2.4-2.4c.426,5.276,3.867,9.338,8.732,11.232,2.643,1.029,5.6,1.261,8.404.969,3.036-.316,5.979-.994,8.535-2.726,4.49-3.044,6.664-7.914,7.957-13.039,1.244-4.931,1.536-10.129.926-15.174s-1.994-9.941-4.386-14.43c-2.351-4.413-5.714-7.581-10.385-9.433-2.407-.955-4.952-1.546-7.458-2.174-3.143-.788-6.35-1.41-9.588-1.62-2.598-.169-5.739-.346-8.024,1.128-2.076,1.34-3.285,3.804-3.06,6.27.249,2.734,2.269,5.081,4.652,6.311,1.278.659,2.625.914,4.009,1.241,3.123.737,6.246,1.474,9.37,2.211,3.004.709,4.286-3.918,1.276-4.629l-6.895-1.627-3.779-.892c-.958-.226-1.43-.311-2.199-.824-1.082-.722-2.078-1.886-1.487-3.224.213-.483.621-.805,1.003-.966.656-.276,1.931-.266,2.996-.269,5.004-.013,9.962,1.274,14.744,2.639,3.647,1.041,6.952,2.679,9.139,5.731,2.367,3.303,3.803,7.308,4.68,11.245,1.751,7.862,1.166,16.808-2.736,23.97-2.536,4.654-8.549,6.179-13.494,5.481-3.877-.548-7.793-3.217-8.131-7.401-.1-1.233-1.02-2.482-2.4-2.4-1.489.088-2.974.232-4.459.368-.557.051-1.119.122-1.679.135-.658.015-.51.052-1.08-.095-.639-.165-1.185-.48-1.48-1.32-.273-.776-.09-2.103.562-2.576,1.048-.76,1.561-2.087.861-3.284-.605-1.035-2.229-1.626-3.284-.861h0Z"/></g></svg>